<svg width="801" height="360" viewBox="0 0 801 360" fill="none" xmlns="http://www.w3.org/2000/svg">
    <rect x="228.885" y="282.627" width="217" height="106" transform="rotate(135.361 228.885 282.627)" fill="#FFCC00" />
    <ellipse cx="162.867" cy="212.228" rx="105" ry="46.1266" transform="rotate(133.822 162.867 212.228)"
        fill="#FFCC00" />
    <rect x="224.225" y="128.989" width="336" height="227" transform="rotate(6.75499 224.225 128.989)" fill="#FFCC00" />
    <rect x="803.539" y="191.221" width="253" height="124" transform="rotate(157.613 803.539 191.221)" fill="#FFCC00" />
    <rect x="938.908" y="403.897" width="308" height="144.41" transform="rotate(156.42 938.908 403.897)"
        fill="#FF5900" />
    <ellipse cx="782.822" cy="156.574" rx="140.5" ry="128" transform="rotate(-1.14091 782.822 156.574)"
        fill="#FF8C00" />
    <rect x="493.86" y="236.726" width="395" height="259" transform="rotate(-36.8202 493.86 236.726)" fill="#FF8C00" />
    <rect x="374.675" y="429.515" width="256" height="249" transform="rotate(-79.5287 374.675 429.515)"
        fill="#FF8C00" />
    <rect x="179.563" y="278.609" width="143" height="166" transform="rotate(36.7416 179.563 278.609)" fill="#FF5900" />
    <ellipse cx="327.461" cy="293.668" rx="167.5" ry="113" transform="rotate(-1.14091 327.461 293.668)"
        fill="#FF8C00" />
</svg>