<svg width="802" height="448" viewBox="0 0 802 448" fill="none" xmlns="http://www.w3.org/2000/svg">
    <rect x="574" y="155.102" width="217" height="106" transform="rotate(-45.6231 574 155.102)" fill="#FFCC00" />
    <ellipse cx="641.217" cy="224.357" rx="105" ry="46.1266" transform="rotate(-47.1613 641.217 224.357)"
        fill="#FFCC00" />
    <rect x="581.297" y="308.637" width="336" height="227" transform="rotate(-174.229 581.297 308.637)"
        fill="#FFCC00" />
    <rect x="1" y="256.359" width="253" height="124" transform="rotate(-23.3704 1 256.359)" fill="#FFCC00" />
    <rect x="-138" y="46.0383" width="308" height="144.41" transform="rotate(-24.564 -138 46.0383)" fill="#FF5900" />
    <ellipse cx="22.3089" cy="290.646" rx="140.5" ry="128" transform="rotate(177.875 22.3089 290.646)" fill="#FF8C00" />
    <rect x="309.852" y="205.545" width="395" height="259" transform="rotate(142.196 309.852 205.545)" fill="#FF8C00" />
    <rect x="425.709" y="10.7381" width="256" height="249" transform="rotate(99.4877 425.709 10.7381)" fill="#FF8C00" />
    <rect x="623.383" y="158.272" width="143" height="166" transform="rotate(-144.242 623.383 158.272)"
        fill="#FF5900" />
    <ellipse cx="475.249" cy="145.755" rx="167.5" ry="113" transform="rotate(177.875 475.249 145.755)" fill="#FF8C00" />
</svg>